<svg width="24" height="24" viewBox="0 0 24 24" fill="none" xmlns="http://www.w3.org/2000/svg">
<rect x="4" y="4.00003" width="16" height="16" rx="3.75" stroke="#11142D" strokeWidth="1.8"/>
<path d="M16 2.40002V5.60002" stroke="#11142D" strokeWidth="1.8" strokeLinecap="round" strokeLinejoin="round"/>
<path d="M8 2.39999V5.59999" stroke="#11142D" strokeWidth="1.8" strokeLinecap="round" strokeLinejoin="round"/>
<path d="M4 10H20" stroke="#11142D" strokeWidth="1.8"/>
<circle cx="15.5" cy="15.5" r="1" stroke="#11142D"/>
<path fill-rule="evenodd" clip-rule="evenodd" d="M16 1.5C16.4971 1.5 16.9 1.90294 16.9 2.4V3.19126C17.4324 3.25787 17.912 3.37803 18.3611 3.60686C19.236 4.05267 19.9474 4.76403 20.3932 5.63898C20.673 6.18809 20.7903 6.78278 20.8459 7.46376C20.9 8.12585 20.9 8.94407 20.9 9.96134V14.0387C20.9 15.056 20.9 15.8742 20.8459 16.5363C20.7903 17.2173 20.673 17.812 20.3932 18.3611C19.9474 19.236 19.236 19.9474 18.3611 20.3932C17.812 20.673 17.2173 20.7903 16.5363 20.846C15.8742 20.9001 15.056 20.9 14.0387 20.9H9.96131C8.94403 20.9 8.12582 20.9001 7.46373 20.846C6.78275 20.7903 6.18806 20.673 5.63895 20.3932C4.764 19.9474 4.05264 19.236 3.60683 18.3611C3.32704 17.812 3.20972 17.2173 3.15409 16.5363C3.09999 15.8742 3.1 15.056 3.10001 14.0387V9.96134C3.1 8.94407 3.09999 8.12585 3.15409 7.46376C3.20972 6.78278 3.32704 6.18809 3.60683 5.63898C4.05264 4.76403 4.764 4.05267 5.63895 3.60686C6.08805 3.37803 6.56765 3.25788 7.10001 3.19126V2.4C7.10001 1.90294 7.50295 1.5 8.00001 1.5C8.49706 1.5 8.90001 1.90294 8.90001 2.4V3.10287C9.22734 3.10003 9.58033 3.10003 9.96122 3.10004H9.96131H14.0387H14.0388C14.4197 3.10003 14.7727 3.10003 15.1 3.10287V2.4C15.1 1.90294 15.5029 1.5 16 1.5ZM7.10001 5.01069V5.6C7.10001 6.09706 7.50295 6.5 8.00001 6.5C8.49706 6.5 8.90001 6.09706 8.90001 5.6V4.903C9.22484 4.90014 9.58851 4.90004 10 4.90004H14C14.4115 4.90004 14.7752 4.90014 15.1 4.903V5.6C15.1 6.09706 15.5029 6.5 16 6.5C16.4971 6.5 16.9 6.09706 16.9 5.6V5.01069C17.1784 5.0596 17.378 5.12613 17.5439 5.21067C18.0801 5.48391 18.5161 5.9199 18.7894 6.45616C18.9183 6.70923 19.0054 7.04067 19.0519 7.61033C19.0847 8.01124 19.0951 8.49065 19.0984 9.10004H4.90156C4.9049 8.49065 4.91535 8.01124 4.94811 7.61033C4.99465 7.04067 5.0817 6.70923 5.21064 6.45616C5.48388 5.9199 5.91987 5.48391 6.45613 5.21067C6.62205 5.12613 6.82166 5.0596 7.10001 5.01069ZM4.90001 10.9H19.1V14C19.1 15.065 19.0993 15.8096 19.0519 16.3897C19.0054 16.9594 18.9183 17.2908 18.7894 17.5439C18.5161 18.0802 18.0801 18.5162 17.5439 18.7894C17.2908 18.9183 16.9594 19.0054 16.3897 19.0519C15.8095 19.0993 15.065 19.1 14 19.1H10C8.93506 19.1 8.19047 19.0993 7.6103 19.0519C7.04064 19.0054 6.7092 18.9183 6.45613 18.7894C5.91987 18.5162 5.48388 18.0802 5.21064 17.5439C5.0817 17.2908 4.99465 16.9594 4.94811 16.3897C4.90071 15.8096 4.90001 15.065 4.90001 14V10.9ZM15.5 17C16.3284 17 17 16.3284 17 15.5C17 14.6716 16.3284 14 15.5 14C14.6716 14 14 14.6716 14 15.5C14 16.3284 14.6716 17 15.5 17Z" fill="#11142D"/>
</svg>
